<?xml version="1.0" encoding="UTF-8"?>
<svg id="Ebene_1" xmlns="http://www.w3.org/2000/svg" viewBox="0 0 593.47 175.15">
  <defs>
    <style>
      .cls-1 {
        fill: #fff;
      }

      .cls-2 {
        fill: #db1e56;
      }
    </style>
  </defs>
  <rect class="cls-1" x="223.64" y="65.4" width="9.13" height="71.95"/>
  <path class="cls-1" d="M228.21,38.76c-1.66,0-3.09.59-4.29,1.76-1.2,1.18-1.8,2.59-1.8,4.25s.6,3.15,1.8,4.32c1.2,1.18,2.63,1.76,4.29,1.76s3.16-.59,4.36-1.76c1.2-1.18,1.8-2.62,1.8-4.32s-.6-3.08-1.8-4.25c-1.2-1.18-2.65-1.76-4.36-1.76Z"/>
  <path class="cls-1" d="M281.75,64.22c-5.67,0-10.57,1.29-14.7,3.87-4.13,2.58-7.14,6.11-9.03,10.58h-.21v-13.28h-8.65v71.95h9.13v-42.61c0-6.69,1.91-12.08,5.74-16.19,3.83-4.1,8.85-6.16,15.08-6.16s10.71,1.73,14.01,5.19c3.3,3.46,4.95,8.33,4.95,14.6v45.17h9.13v-46.63c0-8.16-2.27-14.62-6.81-19.37-4.54-4.75-10.76-7.13-18.64-7.13Z"/>
  <path class="cls-1" d="M374.45,80.2h-.21c-1.94-4.8-5.11-8.66-9.51-11.59-4.4-2.93-9.44-4.39-15.12-4.39-9.09,0-16.45,3.4-22.1,10.2-5.65,6.8-8.47,15.78-8.47,26.95s2.85,20.09,8.54,26.91c5.7,6.83,13.11,10.24,22.24,10.24,5.67,0,10.72-1.5,15.15-4.5,4.43-3,7.68-6.96,9.75-11.9h.21v15.22h8.72V37.52h-9.2v42.68ZM368.12,122.4c-4.27,5.35-9.84,8.02-16.71,8.02s-12.48-2.65-16.67-7.96c-4.2-5.3-6.29-12.34-6.29-21.1s2.1-15.8,6.29-21.1c4.2-5.3,9.75-7.96,16.67-7.96s12.44,2.68,16.71,8.02c4.27,5.35,6.4,12.36,6.4,21.03s-2.13,15.68-6.4,21.03Z"/>
  <path class="cls-1" d="M428.62,64.22c-9.73,0-17.53,3.42-23.38,10.27-5.86,6.85-8.79,15.88-8.79,27.08s2.93,20.4,8.79,27.01c5.86,6.62,13.84,9.93,23.94,9.93,7.84,0,14.47-2.02,19.89-6.05,5.42-4.03,8.68-9.21,9.79-15.53h-9.06c-1.02,4.06-3.34,7.33-6.99,9.82-3.64,2.49-8.12,3.74-13.42,3.74-7.19,0-12.91-2.36-17.16-7.09-4.24-4.73-6.36-11.15-6.36-19.27v-.55h53.89v-3.87c0-10.75-2.81-19.35-8.44-25.8-5.63-6.46-13.19-9.68-22.69-9.68ZM405.93,96.32c.37-7.15,2.62-12.95,6.74-17.4,4.13-4.45,9.4-6.68,15.81-6.68s11.69,2.23,15.7,6.68c4.01,4.45,6.06,10.25,6.16,17.4h-44.41Z"/>
  <path class="cls-1" d="M504.09,98.53l-10.65-2.56c-4.8-1.2-8.3-2.73-10.51-4.6-2.21-1.87-3.32-4.28-3.32-7.23,0-3.6,1.53-6.56,4.6-8.89,3.07-2.33,7.04-3.49,11.93-3.49s9.03,1.22,12.14,3.67c3.11,2.45,4.95,5.81,5.5,10.1h8.79c-.46-6.32-3.1-11.45-7.92-15.39-4.82-3.94-10.9-5.92-18.23-5.92s-13.82,1.91-18.64,5.74c-4.82,3.83-7.23,8.72-7.23,14.67,0,4.8,1.58,8.75,4.74,11.86,3.16,3.11,7.99,5.48,14.49,7.09l11.69,2.91c4.8,1.15,8.2,2.64,10.2,4.46,2.01,1.82,3.01,4.3,3.01,7.44,0,3.78-1.64,6.83-4.91,9.13-3.27,2.31-7.61,3.46-13.01,3.46s-9.72-1.22-13.11-3.67c-3.39-2.44-5.41-5.81-6.05-10.1h-9.13c.6,6.36,3.45,11.51,8.54,15.43,5.1,3.92,11.49,5.88,19.2,5.88,8.12,0,14.76-1.95,19.92-5.85,5.16-3.9,7.75-8.89,7.75-14.98,0-5.16-1.5-9.2-4.5-12.11-3-2.91-8.09-5.26-15.29-7.06Z"/>
  <polygon class="cls-1" points="560.54 96.46 592.85 65.4 581.5 65.4 545.94 99.43 545.94 37.52 536.74 37.52 536.74 137.34 545.94 137.34 545.94 109.46 553.97 102.06 582.75 137.34 593.47 137.34 560.54 96.46"/>
  <path class="cls-2" d="M166.24,0H8.91C3.99,0,0,3.99,0,8.91v157.33c0,4.92,3.99,8.91,8.91,8.91h157.33c4.92,0,8.91-3.99,8.91-8.91V8.91c0-4.92-3.99-8.91-8.91-8.91ZM34.63,46.99c0-5.2,4.21-9.41,9.41-9.41h16.47c5.2,0,9.41,4.21,9.41,9.41h0c0,5.2-4.21,9.41-9.41,9.41h-16.47c-5.2,0-9.41-4.21-9.41-9.41h0ZM44.04,77.57h51.76c5.2,0,9.41,4.21,9.41,9.41s-4.21,9.41-9.41,9.41h-51.76c-5.2,0-9.41-4.21-9.41-9.41s4.21-9.41,9.41-9.41ZM140.52,128.16c0,5.2-4.21,9.41-9.41,9.41H44.04c-5.2,0-9.41-4.21-9.41-9.41h0c0-5.2,4.21-9.41,9.41-9.41h87.06c5.2,0,9.41,4.21,9.41,9.41h0Z"/>
</svg>