<?xml version="1.0" encoding="UTF-8"?>
<svg id="Ebene_1" data-name="Ebene 1" xmlns="http://www.w3.org/2000/svg" viewBox="0 0 451.4 116.44">
  <defs>
    <style>
      .cls-1 {
        letter-spacing: -.04em;
      }

      .cls-1, .cls-2, .cls-3 {
        isolation: isolate;
      }

      .cls-1, .cls-4, .cls-3 {
        fill: #fff;
      }

      .cls-1, .cls-3 {
        font-family: Outfit-Regular, Outfit;
        font-size: 26.14px;
        font-variation-settings: 'wght' 400;
      }

      .cls-5 {
        fill: #7763f6;
      }

      .cls-5, .cls-4 {
        stroke-width: 0px;
      }
    </style>
  </defs>
  <g class="cls-2">
    <text class="cls-3" transform="translate(156.45 102.89)"><tspan x="0" y="0">I</tspan></text>
    <text class="cls-1" transform="translate(163.19 102.89)"><tspan x="0" y="0">T</tspan></text>
    <text class="cls-3" transform="translate(179.12 102.89)"><tspan x="0" y="0"> </tspan></text>
    <text class="cls-3" transform="translate(184.53 102.89)"><tspan x="0" y="0">S</tspan></text>
    <text class="cls-3" transform="translate(198.85 102.89)"><tspan x="0" y="0">olutions</tspan></text>
  </g>
  <g>
    <path class="cls-4" d="M213.27,38.42c-2.47-1.47-5.26-2.21-8.38-2.21-3.29,0-6.25.69-8.87,2.07-1.26.67-2.39,1.48-3.39,2.41v-4.24h-13.79v43.52c7.62,0,13.79-6.17,13.79-13.79v-10.73l.17.08c0-1.47.32-2.76.97-3.88.65-1.12,1.53-1.99,2.65-2.6,1.12-.62,2.38-.93,3.79-.93,2.12,0,3.88.69,5.29,2.07,1.41,1.38,2.12,3.16,2.12,5.34v10.85c0,7.5,6.08,13.59,13.59,13.59v-27.44c0-2.94-.71-5.66-2.12-8.16-1.41-2.5-3.35-4.48-5.82-5.96h0Z"/>
    <path class="cls-4" d="M261.69,15.08h0v23.8c-.96-.73-2.01-1.36-3.17-1.89-2.41-1.09-5.06-1.63-7.94-1.63-4.06,0-7.67.97-10.85,2.91-3.17,1.94-5.64,4.58-7.41,7.94-1.76,3.35-2.65,7.17-2.65,11.46s.88,8.11,2.65,11.46c1.76,3.35,4.22,6,7.36,7.94s6.77,2.91,10.89,2.91c2.88,0,5.52-.6,7.94-1.81,2.02-1.01,3.7-2.32,5.1-3.91,2.05,3.42,5.77,5.71,10.04,5.71h1.6V28.84c0-7.6-6.08-13.77-13.58-13.77h.02ZM258.94,62.87c-.79,1.53-1.9,2.72-3.31,3.57-1.41.85-3.09,1.28-5.03,1.28-1.82,0-3.47-.43-4.94-1.28s-2.6-2.04-3.39-3.57-1.19-3.26-1.19-5.2.43-3.66,1.28-5.16,1.98-2.69,3.39-3.57,3.06-1.32,4.94-1.32,3.53.43,4.94,1.28,2.51,2.03,3.31,3.53c.79,1.5,1.19,3.22,1.19,5.16s-.4,3.76-1.19,5.29h0Z"/>
    <path class="cls-4" d="M291.14,15.08c-2.1,0-3.87.72-5.31,2.16-1.44,1.44-2.16,3.24-2.16,5.4s.72,3.9,2.16,5.4,3.21,2.25,5.31,2.25c2.22,0,4.01-.75,5.36-2.25,1.35-1.5,2.03-3.3,2.03-5.4s-.68-3.96-2.03-5.4-3.14-2.16-5.36-2.16Z"/>
    <path class="cls-4" d="M291.14,36.23h0c3.83,0,6.93,3.1,6.93,6.93v29.88c0,3.83-3.1,6.93-6.93,6.93h0c-3.83,0-6.93-3.1-6.93-6.93v-29.88c0-3.83,3.1-6.93,6.93-6.93Z"/>
    <path class="cls-4" d="M344.16,36.24h-5.94v2.95c-.7-.48-1.43-.92-2.23-1.29-2.4-1.12-5.11-1.68-8.14-1.68-4,0-7.6.96-10.78,2.87s-5.69,4.5-7.51,7.78-2.73,7.01-2.73,11.19.91,7.76,2.73,11.1,4.31,5.97,7.46,7.92c3.15,1.94,6.76,2.91,10.83,2.91,3.03,0,5.75-.58,8.14-1.73.69-.33,1.33-.71,1.95-1.12-.07,2.89-1.01,5.14-2.85,6.72-1.91,1.65-4.54,2.47-7.89,2.47-2.59,0-4.84-.47-6.75-1.41-.02,0-.04-.02-.06-.03-3.66-1.82-8.07-1.18-10.97,1.69l-2.51,2.48c2.06,2.94,4.86,5.22,8.42,6.83,3.56,1.62,7.66,2.42,12.3,2.42s8.69-.9,12.3-2.69c3.62-1.79,6.45-4.34,8.51-7.63s3.09-7.14,3.09-11.55v-32.83c0-4.07-3.3-7.38-7.38-7.38h.01ZM333.82,66.37c-1.5.89-3.27,1.34-5.31,1.34s-3.7-.45-5.17-1.34-2.63-2.12-3.49-3.69c-.86-1.56-1.29-3.24-1.29-5.03s.41-3.54,1.24-5.07,2.01-2.74,3.54-3.64c1.53-.89,3.29-1.34,5.27-1.34s3.8.45,5.27,1.34,2.6,2.11,3.4,3.64,1.2,3.19,1.2,4.98c0,1.98-.4,3.72-1.2,5.22-.8,1.5-1.95,2.7-3.45,3.59h0Z"/>
    <path class="cls-4" d="M367.4,15.08c-2.1,0-3.87.72-5.31,2.16-1.44,1.44-2.16,3.24-2.16,5.4s.72,3.9,2.16,5.4,3.21,2.25,5.31,2.25c2.22,0,4.01-.75,5.36-2.25,1.35-1.5,2.03-3.3,2.03-5.4s-.68-3.96-2.03-5.4-3.14-2.16-5.36-2.16Z"/>
    <rect class="cls-4" x="360.47" y="36.23" width="13.86" height="43.74" rx="6.83" ry="6.83"/>
    <path class="cls-4" d="M163.38,15.08c-2.1,0-3.87.72-5.31,2.16-1.44,1.44-2.16,3.24-2.16,5.4s.72,3.9,2.16,5.4,3.21,2.25,5.31,2.25c2.22,0,4.01-.75,5.36-2.25s2.03-3.3,2.03-5.4-.68-3.96-2.03-5.4-3.14-2.16-5.36-2.16Z"/>
    <path class="cls-4" d="M163.38,36.23c-3.83,0-6.93,3.1-6.93,6.93v29.88c0,3.83,3.1,6.93,6.93,6.93s6.93-3.1,6.93-6.93v-29.88c0-3.83-3.1-6.93-6.93-6.93Z"/>
    <path class="cls-4" d="M431.27,36.47c-5.98,0-11.36,2.82-15.04,7.3-3.69-4.48-9.06-7.3-15.04-7.3-11.12,0-20.13,9.74-20.13,21.75s9.01,21.75,20.13,21.75c5.98,0,11.36-2.82,15.04-7.3,3.69,4.48,9.06,7.3,15.04,7.3,11.12,0,20.13-9.74,20.13-21.75s-9.01-21.75-20.13-21.75ZM406.5,66.36c-1.5.89-3.27,1.34-5.31,1.34s-3.7-.45-5.17-1.34-2.63-2.12-3.49-3.69c-.86-1.56-1.29-3.24-1.29-5.03s.41-3.54,1.24-5.07,2.01-2.74,3.54-3.64c1.53-.89,3.29-1.34,5.27-1.34s3.8.45,5.27,1.34,2.6,2.11,3.4,3.64,1.2,3.19,1.2,4.98c0,1.98-.4,3.72-1.2,5.22-.8,1.5-1.95,2.7-3.45,3.59h0ZM440.03,62.77c-.8,1.5-1.95,2.7-3.45,3.59s-3.27,1.34-5.31,1.34-3.7-.45-5.17-1.34-2.63-2.12-3.49-3.69c-.86-1.56-1.29-3.24-1.29-5.03s.41-3.54,1.24-5.07,2.01-2.74,3.54-3.64c1.53-.89,3.29-1.34,5.27-1.34s3.8.45,5.27,1.34,2.6,2.11,3.4,3.64,1.2,3.19,1.2,4.98c0,1.98-.4,3.72-1.2,5.22h0Z"/>
  </g>
  <g>
    <path class="cls-5" d="M41.09,113.63c10.67,4.67,22.45,3.34,31.58-2.5-2.9-.15-5.77-.5-8.62-1.02-3.24-.58-6.46-1.39-9.6-2.38-6.3-1.98-12.38-4.63-18.11-7.91-2.86-1.64-5.63-3.46-8.27-5.43-2.32-1.74-4.53-3.61-6.62-5.64,1.92,10.67,8.96,20.22,19.64,24.88Z"/>
    <path class="cls-5" d="M.41,54.09c1.71,8.91,8.05,17.17,14.4,23.37,7.85,7.66,17.31,13.9,27.09,18.81,15.72,7.9,34.16,13.42,51.9,12.51,6.72-.34,13.87-1.72,19.64-5.34,2.03-1.27,3.94-2.89,5.49-4.86,3.04-3.87,4.31-8.78,3.68-13.65-.75-5.86-3.74-11.1-7.39-15.62-1.54-1.9-3.14-3.61-4.75-5.17.53,3.06.77,6.15.74,9.28-.01.63-.03,1.25-.06,1.88.34.61.67,1.24.98,1.86,1.86,3.85,3.4,8.66,1.68,12.82-1.17,2.84-3.77,4.9-6.6,6.1-6,2.53-13.11,2.59-19.47,2.09-18.15-1.42-36.19-8.53-51.58-18.02-1.73-1.07-3.43-2.2-5.09-3.35-8.07-5.64-16.67-12.84-20.55-22.13-1.98-4.73-1.89-9.92,2.19-13.46,2.67-2.33,6.52-3.77,9.94-4.58,2.59-2.64,5.47-5,8.61-7.05-.65-.03-1.31-.06-1.98-.07-6.28-.14-12.91.58-18.56,3.53-4.16,2.16-7.76,5.63-9.49,9.99-1.38,3.5-1.51,7.39-.81,11.09v-.03Z"/>
    <path class="cls-5" d="M28.66,37.94c-2.43,2.25-4.63,4.75-6.55,7.45-2.29,3.21-5.84,7.6-4.14,11.63.97,2.29,2.73,4.16,4.48,5.87,12.37,12.05,28.06,20.31,44.42,25.83,10.09,3.4,20.65,5.84,31.29,5.4,1.99-.09,4.16-.36,5.54-1.79.71-.74,1.12-1.69,1.49-2.64,5.93-15.31,3.17-33.66-6.99-46.54-10.16-12.88-27.38-19.83-43.64-17.61-8.6,1.17-16.77,4.88-23.48,10.33-.84.67-1.63,1.36-2.42,2.08h0Z"/>
    <circle class="cls-5" cx="105.41" cy="18.73" r="8.34"/>
    <circle class="cls-5" cx="66.97" cy="4.08" r="4.08"/>
  </g>
</svg>