<?xml version="1.0" encoding="UTF-8"?>
<svg id="svg1968" xmlns="http://www.w3.org/2000/svg" viewBox="0 0 229.25 310.88">
  <defs>
    <style>
      .cls-1 {
        fill: #4e7896;
      }

      .cls-1, .cls-2 {
        stroke-width: 0px;
      }

      .cls-2 {
        fill: #f58219;
      }
    </style>
  </defs>
  <path class="cls-1" d="M166.96,189.98c5.71-3.63,14.02-7.27,14.02-7.27,0,0-23.36,4.15-46.72,6.23-28.55,2.08-59.18,2.6-74.75.52-36.34-4.67,20.24-18.17,20.24-18.17h0s-22.32-1.56-49.31,11.42c-31.66,15.57,78.9,22.32,136.52,7.27Z"/>
  <polygon class="cls-1" points="209.52 265.77 209.52 265.77 209.52 265.77 209.52 265.77"/>
  <path class="cls-1" d="M180.97,227.88h0c-.52,1.04-1.04,1.56-1.04,1.56,77.86-20.24,48.79-72.15,11.94-59.18-3.63,1.04-5.19,4.15-5.19,4.15,0,0,2.08-1.04,6.75-2.08,18.69-3.63,45.68,25.43-12.46,55.54Z"/>
  <polygon class="cls-1" points="66.25 206.6 66.25 206.6 66.25 206.6 66.25 206.6"/>
  <path class="cls-1" d="M183.05,299.51c-47.76,8.82-106.93,7.79-141.71,2.08,0,0,7.27,6.23,44.12,8.31h0c56.06,3.63,141.71-2.08,143.79-28.55,0,0-4.15,10.38-46.2,18.17Z"/>
  <path class="cls-1" d="M156.57,214.38c-35.82,7.27-56.58,6.75-83.05,4.15-20.24-2.08-7.27-11.93-7.27-11.94-52.43,17.65,29.59,37.37,102.78,15.57-7.79-2.6-12.46-7.79-12.46-7.79Z"/>
  <path class="cls-1" d="M209.52,265.77s8.8,7.27-9.86,12.98c-34.78,10.38-145.86,13.5-177.01,0-10.9-4.67,9.86-11.42,16.61-12.46,6.75-1.56,10.38-1.56,10.38-1.56-11.94-8.31-79.42,17.13-34.26,24.4,124.06,20.24,226.32-8.82,194.14-23.36Z"/>
  <path class="cls-1" d="M74.04,240.34h0c-47.76,13.5,29.07,41.01,89.8,15.05-9.86-3.63-17.13-8.31-17.13-8.31-26.99,5.19-39.97,5.71-64.37,2.6-20.24-2.08-8.31-9.34-8.31-9.34Z"/>
  <path class="cls-2" d="M129.06,148.98h0c15.05,17.13-4.15,32.7-4.15,32.7,0,0,38.41-19.73,20.76-44.12-16.09-23.36-28.55-34.78,38.93-73.71,0,0-106.41,26.47-55.54,85.13Z"/>
  <path class="cls-2" d="M115.05,170.78c-11.42-25.95-50.35-48.79,0-88.76C177.86,32.7,145.67,0,145.67,0h0c12.98,51.39-45.68,66.96-66.96,99.14-14.53,21.8,6.75,45.16,36.34,71.63Z"/>
</svg>