<?xml version="1.0" encoding="UTF-8"?>
<svg id="Ebene_1" data-name="Ebene 1" xmlns="http://www.w3.org/2000/svg" viewBox="0 0 2192.4 930.04">
  <defs>
    <style>
      .cls-1 {
        fill: #387cdf;
      }

      .cls-1, .cls-2 {
        stroke-width: 0px;
      }

      .cls-2 {
        fill: #dbdbe4;
      }
    </style>
  </defs>
  <path class="cls-1" d="M939.62,70.77c-.29-34.24-28.29-61.76-62.54-61.44l-44.09.41c-151.14,1.34-350.65,102.34-490.35,275.23-11.64,14.41-29.09,22.89-47.62,23.07l-87.67.87c-84.67.57-132.86,64.45-165.95,131.85h0c-20.25,41.39,10.16,89.62,56.24,89.18l5.79-.05,39.49-.37c41.58-.39,81.57,15.96,110.98,45.36l132.88,132.88c28.69,28.69,44.98,67.5,45.36,108.08l.35,37.64.05,5.76c.43,46.08,49.23,75.58,90.23,54.56h.02c66.61-34.02,129.72-83.05,128.93-168.16l-.54-87.95c-.11-18.5,8.06-36.06,22.24-47.93,170.3-142.54,268-343.75,266.57-494.57l-.37-44.42ZM707.81,352.53l-123.3,157.34c-.37.56-1.3.93-2.05.93h-9.3c-11.72,0-21.02-10.23-19.71-21.76l8.74-82.57c.37-2.98-2.05-5.77-5.21-5.77h-67.7c-2.98,0-5.95-1.3-8-3.72l-7.07-8.18c-3.35-3.72-3.35-9.3-.37-13.2l123.12-157.34c.37-.56,1.3-.93,2.05-.93h9.3c11.72,0,21.02,10.23,19.71,21.76l-8.93,82.57c-.37,2.98,2.05,5.77,5.21,5.77h67.88c2.98,0,5.95,1.49,8,3.72l7.25,8.18c3.35,3.72,3.53,9.3.37,13.2Z"/>
  <g>
    <g>
      <path class="cls-2" d="M1296.37,456.41h104.14v40.91h-150.63V231.4h46.49v225.02Z"/>
      <path class="cls-2" d="M1473.03,400.62c0,18.6,5.08,33.47,15.25,44.63,10.17,11.16,23.68,16.74,40.54,16.74s29.44-5.58,39.24-16.74c9.79-11.16,14.69-26.03,14.69-44.63v-169.23h46.49v169.23c0,20.58-4.15,38.56-12.46,53.93-8.31,15.37-20.02,27.27-35.15,35.7-15.12,8.43-32.73,12.65-52.81,12.65s-38.56-4.22-53.93-12.65c-15.37-8.43-27.27-20.33-35.7-35.7-8.43-15.37-12.65-33.35-12.65-53.93v-169.23h46.49v169.23Z"/>
      <path class="cls-2" d="M1805.9,367.15h3.72l79.96-135.75h50.21v265.93h-46.49v-126.45l1.86-61.37h-1.86l-68.81,117.16h-33.47l-68.81-117.16h-1.86l1.86,61.37v126.45h-46.49V231.4h50.21l79.96,135.75Z"/>
      <path class="cls-2" d="M2153.65,272.31h-120.88v70.67h106v40.91h-106v72.53h124.6v40.91h-171.09V231.4h167.37v40.91Z"/>
    </g>
    <g>
      <path class="cls-2" d="M1387.42,630.73c-5.59-5.76-8.39-13.28-8.39-22.58,0-6.09,1.66-11.68,4.98-16.77s7.89-9.11,13.7-12.04c5.81-2.93,12.32-4.4,19.51-4.4,7.75,0,14.7,1.74,20.84,5.23,6.14,3.49,10.82,7.56,14.03,12.21l-15.78,11.62c-2.32-3.43-5.01-6.09-8.05-7.97-3.04-1.88-6.73-2.82-11.04-2.82-5.09,0-9.27,1.38-12.54,4.15-3.27,2.77-4.9,6.37-4.9,10.79s1.55,7.94,4.65,10.88c3.1,2.93,7.92,5.67,14.45,8.22,11.85,4.65,20.62,9.94,26.32,15.86s8.55,13.37,8.55,22.33c0,6.2-1.58,11.82-4.73,16.85-3.16,5.04-7.64,9.02-13.45,11.96-5.81,2.93-12.48,4.4-20.01,4.4-9.63,0-17.77-2.19-24.41-6.56-6.64-4.37-11.51-10.49-14.61-18.35l15.78-10.79c2.32,5.54,5.54,9.82,9.63,12.87s8.91,4.57,14.45,4.57,9.41-1.41,12.29-4.23c2.88-2.82,4.32-6.39,4.32-10.71s-1.74-8.05-5.23-11.21c-3.49-3.16-8.11-5.78-13.87-7.89-12.07-4.65-20.9-9.85-26.49-15.61Z"/>
      <path class="cls-2" d="M1543.6,632.97c3.76,6.48,5.65,13.7,5.65,21.67s-1.85,15.8-5.56,22.5c-3.71,6.7-8.83,11.96-15.36,15.78-6.53,3.82-13.95,5.73-22.25,5.73s-15.72-1.91-22.25-5.73c-6.53-3.82-11.65-9.08-15.36-15.78-3.71-6.7-5.56-14.2-5.56-22.5s1.88-15.19,5.65-21.67c3.76-6.48,8.94-11.54,15.53-15.19,6.59-3.65,13.92-5.48,22-5.48s15.42,1.83,22,5.48c6.59,3.65,11.76,8.72,15.53,15.19ZM1506.07,681.21c6.75,0,12.32-2.49,16.69-7.47,4.37-4.98,6.56-11.35,6.56-19.1,0-7.2-2.19-13.15-6.56-17.85-4.37-4.71-9.94-7.06-16.69-7.06s-12.32,2.35-16.69,7.06c-4.37,4.7-6.56,10.66-6.56,17.85,0,7.75,2.19,14.12,6.56,19.1,4.37,4.98,9.94,7.47,16.69,7.47Z"/>
      <path class="cls-2" d="M1582.46,577.42v118.73h-19.93v-118.73h19.93Z"/>
      <path class="cls-2" d="M1620.65,614.79v53.14c0,4.43,1.05,7.75,3.16,9.96,2.1,2.21,4.65,3.32,7.64,3.32s5.65-.83,8.3-2.49v17.44c-3.32,1.66-7.47,2.49-12.45,2.49s-9.49-1.27-13.53-3.82c-4.04-2.55-7.22-6.17-9.55-10.88-2.32-4.71-3.49-10.05-3.49-16.02v-53.14h19.93ZM1658.84,678.72h-19.1v-17.44h19.1v-46.5h19.93v81.37h-19.93v-17.44Z"/>
      <path class="cls-2" d="M1716.96,589.05v25.74h24.08v17.44h-24.08v34.87c0,4.54,1.3,7.89,3.9,10.05,2.6,2.16,6.01,3.24,10.21,3.24,1.77,0,3.6-.17,5.48-.5,1.88-.33,3.38-.72,4.48-1.16v17.44c-3.32,1.66-8.58,2.49-15.78,2.49-5.31,0-10.1-1.27-14.36-3.82-4.26-2.55-7.64-6.17-10.13-10.88-2.49-4.71-3.74-10.05-3.74-16.02v-68.91l14.12-9.96h5.81Z"/>
      <path class="cls-2" d="M1765.12,575.76c3.54,0,6.5,1.19,8.88,3.57,2.38,2.38,3.57,5.34,3.57,8.88s-1.19,6.5-3.57,8.88c-2.38,2.38-5.34,3.57-8.88,3.57s-6.5-1.19-8.88-3.57c-2.38-2.38-3.57-5.34-3.57-8.88s1.19-6.5,3.57-8.88c2.38-2.38,5.34-3.57,8.88-3.57ZM1775.08,696.15h-19.93v-81.37h19.93v81.37Z"/>
      <path class="cls-2" d="M1868.24,632.97c3.76,6.48,5.65,13.7,5.65,21.67s-1.85,15.8-5.56,22.5c-3.71,6.7-8.83,11.96-15.36,15.78-6.53,3.82-13.95,5.73-22.25,5.73s-15.72-1.91-22.25-5.73c-6.53-3.82-11.65-9.08-15.36-15.78-3.71-6.7-5.56-14.2-5.56-22.5s1.88-15.19,5.65-21.67c3.76-6.48,8.94-11.54,15.53-15.19,6.59-3.65,13.92-5.48,22-5.48s15.42,1.83,22,5.48c6.59,3.65,11.76,8.72,15.53,15.19ZM1830.71,681.21c6.75,0,12.32-2.49,16.69-7.47,4.37-4.98,6.56-11.35,6.56-19.1,0-7.2-2.19-13.15-6.56-17.85-4.37-4.71-9.94-7.06-16.69-7.06s-12.32,2.35-16.69,7.06c-4.37,4.7-6.56,10.66-6.56,17.85,0,7.75,2.19,14.12,6.56,19.1,4.37,4.98,9.94,7.47,16.69,7.47Z"/>
      <path class="cls-2" d="M1907.1,632.22h19.1v17.44h-19.1v46.5h-19.93v-81.37h19.93v17.44ZM1938.65,612.3c4.98,0,9.49,1.27,13.53,3.82,4.04,2.55,7.22,6.17,9.55,10.88,2.32,4.71,3.49,10.05,3.49,16.02v53.14h-19.93v-53.14c0-4.43-1.05-7.75-3.16-9.96-2.1-2.21-4.65-3.32-7.64-3.32s-5.65.83-8.3,2.49v-17.44c3.32-1.66,7.47-2.49,12.45-2.49Z"/>
      <path class="cls-2" d="M1985.56,652.32c-3.6-4.32-5.4-9.35-5.4-15.11,0-4.54,1.38-8.72,4.15-12.54,2.77-3.82,6.5-6.84,11.21-9.05,4.71-2.21,9.83-3.32,15.36-3.32,6.97,0,13.23,1.38,18.76,4.15,5.53,2.77,9.52,6.37,11.96,10.79l-14.95,11.62c-4.21-6.09-9.47-9.13-15.78-9.13-3.21,0-5.81.72-7.8,2.16-1.99,1.44-2.99,3.21-2.99,5.31,0,1.88.75,3.57,2.24,5.06,1.49,1.49,4.35,2.85,8.55,4.07l8.3,2.49c7.64,2.32,13.56,5.65,17.77,9.96,4.21,4.32,6.31,9.3,6.31,14.95,0,4.54-1.41,8.72-4.23,12.54-2.82,3.82-6.59,6.84-11.29,9.05-4.71,2.21-9.77,3.32-15.19,3.32-7.42,0-14.28-1.63-20.59-4.9-6.31-3.27-10.79-7.72-13.45-13.37l14.95-10.79c2.1,3.43,4.84,6.23,8.22,8.39,3.38,2.16,7.28,3.24,11.71,3.24,3.1,0,5.54-.58,7.31-1.74,1.77-1.16,2.66-2.8,2.66-4.9,0-3.99-4.43-7.31-13.28-9.96l-8.3-2.49c-7.2-2.21-12.59-5.48-16.19-9.8Z"/>
    </g>
  </g>
</svg>