<?xml version="1.0" encoding="UTF-8"?>
<svg id="Ebene_1" data-name="Ebene 1" xmlns="http://www.w3.org/2000/svg" viewBox="0 0 126.12 139.91">
  <defs>
    <style>
      .cls-1 {
        fill: #fff;
        stroke-width: 0px;
      }
    </style>
  </defs>
  <path class="cls-1" d="M121.27,4.85v130.22H4.85V4.85h116.43M121.27,0H4.85L0,4.85v130.22l4.85,4.85h116.43l4.85-4.85V4.85l-4.85-4.85h0Z"/>
  <g>
    <polygon class="cls-1" points="95.01 15.21 63.54 60.81 31.05 15.21 15.21 15.21 15.21 18.67 15.21 39.43 15.21 41.93 15.21 100.15 30.12 100.15 30.12 62.84 30.12 37.16 63.64 84.21 96.01 37.32 96.01 63.56 96.01 100.15 110.91 100.15 110.91 41.96 110.91 26.26 110.91 18.42 110.91 15.21 95.01 15.21"/>
    <polygon class="cls-1" points="101.11 109.8 88.2 109.8 77.1 109.8 86.21 96.82 86.21 70.88 63.73 102.91 40.61 71.37 40.61 96.57 50.31 109.8 40.61 109.8 25.7 109.8 13.96 109.8 13.96 124.7 48.44 124.7 66.65 124.7 109.65 124.7 109.65 109.8 101.11 109.8"/>
  </g>
</svg>