<?xml version="1.0" encoding="UTF-8"?>
<svg id="Ebene_1" data-name="Ebene 1" xmlns="http://www.w3.org/2000/svg" viewBox="0 0 361.63 139.91">
  <defs>
    <style>
      .cls-1 {
        fill: #fff;
        stroke-width: 0px;
      }
    </style>
  </defs>
  <path class="cls-1" d="M4.85,0L0,4.85v130.22l4.85,4.85h116.43l4.85-4.85V4.85l-4.85-4.85H4.85ZM121.27,135.07H4.85V4.85h116.43v130.22Z"/>
  <polygon class="cls-1" points="30.12 62.84 30.12 37.16 63.64 84.21 96.01 37.32 96.01 63.56 96.01 100.15 110.91 100.15 110.91 41.96 110.91 26.26 110.91 18.42 110.91 15.21 95.01 15.21 63.54 60.81 31.05 15.21 15.21 15.21 15.21 18.67 15.21 39.43 15.21 41.93 15.21 100.15 30.12 100.15 30.12 62.84"/>
  <polygon class="cls-1" points="66.65 124.7 109.65 124.7 109.65 109.8 101.11 109.8 88.2 109.8 77.1 109.8 86.21 96.82 86.21 70.88 63.73 102.91 40.61 71.37 40.61 96.57 50.31 109.8 40.61 109.8 25.7 109.8 13.96 109.8 13.96 124.7 48.44 124.7 66.65 124.7"/>
  <polygon class="cls-1" points="166.29 47.86 146.86 15.93 142.13 15.93 142.13 65.62 148.86 65.62 148.86 30.65 163.89 55.45 168.69 55.45 183.73 30.65 183.73 65.62 190.46 65.62 190.46 15.93 185.73 15.93 166.29 47.86"/>
  <path class="cls-1" d="M218.88,15.93l-20.4,49.69h7.23l4.5-11.24h22.02l4.48,11.24h7.3l-20.26-49.69h-4.87ZM212.55,48.5l8.68-21.69,8.65,21.69h-17.33Z"/>
  <path class="cls-1" d="M288.61,65.62l-17.87-21.67c2.71-.12,5.13-.67,7.2-1.7,2.34-1.17,4.14-2.8,5.41-4.9,1.26-2.1,1.9-4.56,1.9-7.37s-.63-5.13-1.9-7.23c-1.27-2.1-3.07-3.76-5.41-4.98-2.34-1.22-5.08-1.83-8.23-1.83h-18.26v49.69h6.73v-21.62h4.39l17.52,21.62h8.52ZM258.18,38.34v-16.54h11.31c2.86,0,5.07.79,6.62,2.36,1.55,1.58,2.33,3.56,2.33,5.94,0,2.53-.78,4.53-2.33,6.01-1.55,1.48-3.78,2.22-6.69,2.22h-11.24Z"/>
  <rect class="cls-1" x="295.55" y="15.93" width="6.73" height="49.69"/>
  <path class="cls-1" d="M346.42,64.36c3.03-1.31,5.68-3.14,7.95-5.48,2.27-2.34,4.05-5.06,5.33-8.16,1.29-3.1,1.93-6.42,1.93-9.95s-.64-6.92-1.93-10.02c-1.29-3.1-3.08-5.82-5.37-8.16-2.29-2.34-4.95-4.15-7.98-5.44-3.03-1.29-6.31-1.93-9.84-1.93s-6.81.64-9.84,1.93c-3.03,1.29-5.68,3.1-7.95,5.44-2.27,2.34-4.04,5.05-5.33,8.13-1.29,3.08-1.93,6.41-1.93,9.99s.64,6.85,1.93,9.95c1.29,3.1,3.08,5.83,5.37,8.2,2.29,2.36,4.96,4.2,8.02,5.51,3.05,1.31,6.35,1.97,9.88,1.97s6.74-.66,9.77-1.97ZM329.24,58.46c-2.22-.95-4.13-2.28-5.73-3.97-1.6-1.69-2.84-3.72-3.72-6.09-.88-2.36-1.32-4.93-1.32-7.7,0-3.72.77-7.02,2.33-9.88,1.55-2.86,3.67-5.11,6.37-6.73,2.7-1.62,5.81-2.43,9.34-2.43,2.67,0,5.11.47,7.3,1.4,2.19.93,4.1,2.26,5.73,3.97,1.62,1.72,2.88,3.74,3.76,6.05.88,2.32,1.32,4.86,1.32,7.62,0,3.72-.78,7.03-2.33,9.92-1.55,2.89-3.69,5.15-6.41,6.8-2.72,1.65-5.85,2.47-9.38,2.47-2.63,0-5.05-.48-7.27-1.43Z"/>
  <polygon class="cls-1" points="177.14 75.59 173.63 75.59 144.42 98.18 144.42 75.59 142.13 75.59 142.13 123.99 144.42 123.99 144.42 99.43 174.28 123.99 177.86 123.99 147.08 98.77 177.14 75.59"/>
  <path class="cls-1" d="M236.45,107.31c0,3.05-.66,5.73-1.97,8.02-1.31,2.29-3.09,4.06-5.33,5.3-2.24,1.24-4.8,1.86-7.66,1.86s-5.36-.62-7.62-1.86c-2.27-1.24-4.06-3.01-5.37-5.3-1.31-2.29-1.97-4.99-1.97-8.09v-31.64h-2.29v32.07c0,3.25.75,6.16,2.26,8.73,1.5,2.58,3.56,4.61,6.16,6.09,2.6,1.48,5.55,2.22,8.84,2.22s6.24-.74,8.84-2.22c2.6-1.48,4.65-3.5,6.16-6.05,1.5-2.55,2.26-5.45,2.26-8.7v-32.15h-2.29v31.72Z"/>
  <path class="cls-1" d="M282.08,101.22c3.2,0,5.89-.54,8.09-1.61,2.19-1.07,3.87-2.58,5.01-4.51,1.15-1.93,1.72-4.16,1.72-6.69s-.57-4.76-1.72-6.69-2.82-3.44-5.01-4.51c-2.2-1.07-4.89-1.61-8.09-1.61h-16.68v48.4h2.29v-22.77h11.2l18.58,22.77h3.08l-18.79-22.77h.32ZM267.69,99.14v-21.48h14.75c3.96,0,6.97.98,9.02,2.94,2.05,1.96,3.08,4.56,3.08,7.8s-1.03,5.79-3.08,7.77c-2.05,1.98-5.06,2.97-9.02,2.97h-14.75Z"/>
  <polygon class="cls-1" points="329.08 77.67 357.7 77.67 328 122.7 328 123.99 360.43 123.99 360.43 121.91 331.24 121.91 360.93 76.88 360.93 75.59 329.08 75.59 329.08 77.67"/>
</svg>