<?xml version="1.0" encoding="UTF-8"?>
<svg id="Ebene_1" data-name="Ebene 1" xmlns="http://www.w3.org/2000/svg" viewBox="0 0 1000 1000">
  <defs>
    <style>
      .cls-1 {
        fill: #db1e56;
      }
    </style>
  </defs>
  <g>
    <g>
      <path class="cls-1" d="M335.46,639.5c-1.52,0-2.83-.54-3.93-1.62-1.1-1.08-1.65-2.4-1.65-3.96s.55-2.82,1.65-3.9c1.1-1.08,2.41-1.62,3.93-1.62s2.89.54,3.99,1.62c1.1,1.08,1.65,2.38,1.65,3.9s-.55,2.88-1.65,3.96c-1.1,1.08-2.43,1.62-3.99,1.62ZM331.28,718.73v-65.92h8.37v65.92h-8.37Z"/>
      <path class="cls-1" d="M354.67,718.73v-65.92h7.92v12.17h.19c1.73-4.1,4.49-7.33,8.27-9.7,3.78-2.37,8.27-3.55,13.47-3.55,7.23,0,12.92,2.18,17.08,6.53,4.16,4.35,6.24,10.27,6.24,17.75v42.72h-8.37v-41.39c0-5.75-1.51-10.2-4.53-13.37-3.02-3.17-7.3-4.75-12.83-4.75s-10.31,1.88-13.82,5.64c-3.51,3.76-5.26,8.7-5.26,14.83v39.04h-8.37Z"/>
      <path class="cls-1" d="M446.89,719.81c-8.37,0-15.16-3.13-20.38-9.38-5.22-6.25-7.83-14.47-7.83-24.66s2.59-18.45,7.76-24.69c5.18-6.23,11.93-9.35,20.25-9.35,5.2,0,9.81,1.34,13.85,4.03,4.03,2.68,6.94,6.22,8.71,10.62h.19v-39.11h8.43v91.46h-7.99v-13.94h-.19c-1.9,4.52-4.88,8.16-8.94,10.9-4.06,2.75-8.68,4.12-13.88,4.12ZM448.34,659.15c-6.34,0-11.43,2.43-15.28,7.29-3.85,4.86-5.77,11.3-5.77,19.33s1.92,14.47,5.77,19.33c3.84,4.86,8.94,7.29,15.28,7.29s11.4-2.45,15.31-7.35c3.91-4.9,5.86-11.32,5.86-19.27s-1.96-14.37-5.86-19.27c-3.91-4.9-9.01-7.35-15.31-7.35Z"/>
      <path class="cls-1" d="M538.47,700.03h8.3c-1.01,5.79-4,10.53-8.97,14.23-4.97,3.7-11.04,5.55-18.22,5.55-9.25,0-16.56-3.03-21.93-9.1-5.37-6.06-8.05-14.31-8.05-24.75s2.68-18.54,8.05-24.81c5.37-6.27,12.51-9.41,21.42-9.41s15.63,2.96,20.79,8.87c5.15,5.92,7.73,13.8,7.73,23.64v3.55h-49.37v.51c0,7.44,1.94,13.32,5.83,17.65,3.89,4.33,9.13,6.5,15.72,6.5,4.86,0,8.96-1.14,12.3-3.42,3.34-2.28,5.47-5.28,6.4-9ZM518.95,659.09c-5.87,0-10.7,2.04-14.48,6.12-3.78,4.08-5.84,9.39-6.18,15.94h40.69c-.09-6.55-1.96-11.86-5.64-15.94-3.68-4.08-8.47-6.12-14.39-6.12Z"/>
      <path class="cls-1" d="M557.49,670.43c0-5.45,2.21-9.93,6.62-13.44,4.41-3.51,10.11-5.26,17.08-5.26s12.28,1.81,16.7,5.42c4.41,3.61,6.83,8.31,7.26,14.1h-8.05c-.51-3.93-2.19-7.01-5.04-9.25-2.85-2.24-6.56-3.36-11.12-3.36s-8.12,1.07-10.93,3.2c-2.81,2.13-4.21,4.85-4.21,8.14,0,2.7,1.01,4.91,3.04,6.62,2.03,1.71,5.24,3.12,9.63,4.21l9.76,2.35c6.59,1.65,11.26,3.8,14.01,6.47,2.75,2.66,4.12,6.36,4.12,11.09,0,5.58-2.37,10.15-7.1,13.72-4.73,3.57-10.82,5.36-18.25,5.36s-12.92-1.8-17.59-5.39c-4.67-3.59-7.28-8.3-7.83-14.13h8.37c.59,3.93,2.44,7.01,5.55,9.25,3.11,2.24,7.11,3.36,12.01,3.36s8.92-1.06,11.92-3.17c3-2.11,4.5-4.9,4.5-8.37,0-2.87-.92-5.14-2.76-6.81-1.84-1.67-4.95-3.03-9.35-4.09l-10.71-2.66c-5.96-1.48-10.38-3.64-13.28-6.5-2.89-2.85-4.34-6.47-4.34-10.87Z"/>
      <path class="cls-1" d="M626.57,684l32.58-31.18h10.39l-29.6,28.46,30.17,37.46h-9.82l-26.37-32.32-7.35,6.78v25.54h-8.43v-91.46h8.43v56.73Z"/>
    </g>
    <path class="cls-1" d="M624.21,280.19h-248.42c-7.77,0-14.07,6.3-14.07,14.07v248.42c0,7.77,6.3,14.07,14.07,14.07h248.42c7.77,0,14.07-6.3,14.07-14.07v-248.42c0-7.77-6.3-14.07-14.07-14.07ZM416.4,354.39c0-8.21,6.65-14.86,14.86-14.86h26.01c8.21,0,14.86,6.65,14.86,14.86h0c0,8.21-6.65,14.86-14.86,14.86h-26.01c-8.21,0-14.86-6.65-14.86-14.86h0ZM431.27,402.68h81.74c8.21,0,14.86,6.65,14.86,14.86s-6.65,14.86-14.86,14.86h-81.74c-8.21,0-14.86-6.65-14.86-14.86s6.65-14.86,14.86-14.86ZM583.6,482.56c0,8.21-6.65,14.86-14.86,14.86h-137.47c-8.21,0-14.86-6.65-14.86-14.86h0c0-8.21,6.65-14.86,14.86-14.86h137.47c8.21,0,14.86,6.65,14.86,14.86h0Z"/>
  </g>
</svg>