<?xml version="1.0" encoding="UTF-8"?>
<svg id="Ebene_1" data-name="Ebene 1" xmlns="http://www.w3.org/2000/svg" viewBox="0 0 2449.79 398.98">
  <defs>
    <style>
      .cls-1 {
        fill: #000;
      }

      .cls-1, .cls-2 {
        stroke-width: 0px;
      }

      .cls-2 {
        fill: #4890ff;
      }
    </style>
  </defs>
  <rect class="cls-1" x="527.87" y="90.4" width="42.33" height="218.22"/>
  <path class="cls-1" d="M730.39,162.23c-5.74-5.28-12.29-9.19-19.67-11.74-7.37-2.55-15.07-3.82-23.08-3.82-3.64,0-7.42.37-11.33,1.09-3.92.73-7.74,1.78-11.47,3.14-3.73,1.37-7.33,3.05-10.79,5.05-3.46,2.01-6.38,4.19-8.74,6.55l-.27-11.74h-39.33v157.86h39.33v-114.98c4.75-4.55,10.05-7.87,15.9-9.97,5.85-2.09,11.8-3.14,17.83-3.14,4.02,0,7.91.68,11.65,2.05,3.75,1.37,7.08,3.46,10.01,6.28,2.93,2.82,5.26,6.38,6.99,10.65,1.74,4.28,2.61,9.24,2.61,14.89v94.23h39.33v-96.14c0-11.47-1.73-21.39-5.19-29.77-3.46-8.37-8.06-15.2-13.79-20.48Z"/>
  <path class="cls-1" d="M1096.23,169.87c-7.83-7.28-16.84-12.97-27.04-17.07-10.2-4.1-20.85-6.15-31.96-6.15-11.65,0-22.58,2.18-32.77,6.55-10.2,4.37-19.12,10.29-26.77,17.75-7.65,7.47-13.66,16.25-18.03,26.36-4.37,10.11-6.55,20.89-6.55,32.37s2.18,22.26,6.55,32.36c4.37,10.1,10.33,18.89,17.89,26.36,7.55,7.47,16.48,13.38,26.77,17.75,10.28,4.37,21.35,6.55,33.18,6.55s22.71-1.69,33.18-5.05c10.47-3.37,21.17-9.15,32.09-17.34l-7.09-7.09c-9.25-9.25-22.96-12.19-35.3-7.87-.07.02-.14.05-.21.07-7.1,2.46-14.2,3.69-21.3,3.69-5.83,0-11.16-.86-15.98-2.59-4.83-1.73-9.15-4.1-12.97-7.1-3.82-3-7.06-6.56-9.7-10.65-2.64-4.1-4.69-8.42-6.15-12.97h126.18c.36-2.91.68-5.74.96-8.47.27-2.73.41-5.37.41-7.92,0-12.2-2.28-23.35-6.83-33.46-4.55-10.11-10.75-18.8-18.57-26.08ZM994.08,214.12c3.09-10.01,8.56-18.07,16.39-24.17,7.83-6.1,16.66-9.15,26.49-9.15s18.98,3.05,26.9,9.15c7.92,6.1,13.43,14.16,16.52,24.17h-86.31Z"/>
  <polygon class="cls-1" points="1279.76 150.48 1234.97 150.48 1206.29 194.73 1177.34 150.48 1132.82 150.48 1184.44 226.14 1128.18 308.89 1173.24 308.89 1206.29 258.36 1239.07 308.89 1284.13 308.89 1227.87 226.14 1279.76 150.48"/>
  <rect class="cls-1" x="1293.69" y="201.01" width="85.76" height="36.6"/>
  <path class="cls-1" d="M1537.85,176.98h-86.03v-86.58h-15.58c-14.77,0-26.75,11.98-26.75,26.75v191.47h42.33v-96.68h86.03v69.93c0,14.77,11.98,26.75,26.75,26.75h15.58V90.4h-42.33v86.58Z"/>
  <path class="cls-1" d="M1754.16,170.56c-7.65-7.37-16.62-13.2-26.9-17.48-10.29-4.28-21.26-6.42-32.91-6.42s-22.31,2.14-32.5,6.42c-10.2,4.28-19.12,10.2-26.77,17.75-7.65,7.56-13.7,16.39-18.16,26.49-4.46,10.11-6.69,20.89-6.69,32.37s2.19,22.53,6.56,32.64c4.37,10.11,10.38,18.89,18.03,26.36,7.65,7.47,16.57,13.34,26.77,17.62,10.19,4.28,21.12,6.42,32.77,6.42s22.62-2.14,32.91-6.42c10.28-4.28,19.25-10.1,26.9-17.48,7.65-7.37,13.66-16.11,18.03-26.22,4.37-10.1,6.55-21.07,6.55-32.91s-2.19-22.58-6.55-32.77c-4.37-10.19-10.38-18.98-18.03-26.36ZM1735.87,248.53c-2.36,5.83-5.58,10.93-9.67,15.29s-8.85,7.78-14.3,10.24c-5.45,2.46-11.25,3.69-17.42,3.69s-11.98-1.23-17.43-3.69c-5.45-2.46-10.21-5.87-14.3-10.24-4.08-4.37-7.31-9.47-9.67-15.29-2.36-5.82-3.54-12.11-3.54-18.84s1.18-13.02,3.54-18.85c2.36-5.83,5.58-10.93,9.67-15.29,4.08-4.37,8.85-7.78,14.3-10.24,5.45-2.46,11.26-3.69,17.43-3.69s11.98,1.23,17.42,3.69c5.45,2.46,10.21,5.87,14.3,10.24s7.31,9.47,9.67,15.29c2.36,5.83,3.54,12.11,3.54,18.85s-1.18,13.02-3.54,18.84Z"/>
  <path class="cls-1" d="M1904.38,232.83c-4.55-4.1-9.83-7.69-15.84-10.79-6.01-3.09-12.38-5.64-19.12-7.65-10.38-3.09-18.35-6.19-23.9-9.29-5.56-3.09-8.33-6.73-8.33-10.92,0-2.36.73-4.51,2.18-6.42,1.46-1.91,3.32-3.46,5.6-4.64,2.27-1.18,4.73-2.09,7.37-2.73,2.64-.64,5.14-.96,7.51-.96,6.92,0,13.29,1.64,19.12,4.92,5.83,3.28,11.01,7.74,15.57,13.38l23.49-23.76c-15.33-18.21-35.04-27.31-59.12-27.31-7.49,0-14.88,1.09-22.17,3.28-7.3,2.18-13.83,5.33-19.58,9.42-5.75,4.1-10.4,9.2-13.96,15.29-3.56,6.1-5.34,12.97-5.34,20.62,0,6.92,1.37,13.02,4.1,18.3,2.73,5.28,6.37,9.97,10.93,14.07,4.55,4.1,9.74,7.56,15.57,10.38,5.83,2.83,11.83,5.15,18.03,6.96,10.56,3.1,18.75,6.24,24.58,9.42,5.83,3.19,8.74,7.15,8.74,11.88s-2.05,7.97-6.15,10.24c-4.1,2.28-9.24,3.41-15.43,3.41-7.1,0-13.75-1.68-19.94-5.05-6.19-3.37-11.65-8.06-16.39-14.07l-23.76,24.03c7.66,9.83,16.56,16.98,26.69,21.44,10.13,4.46,21.21,6.69,33.26,6.69,7.11,0,14.32-1.05,21.62-3.14,7.3-2.09,13.87-5.19,19.71-9.29,5.84-4.1,10.58-9.19,14.24-15.29,3.65-6.1,5.48-13.06,5.48-20.89,0-6.55-1.32-12.43-3.96-17.62-2.64-5.19-6.24-9.83-10.79-13.93Z"/>
  <path class="cls-1" d="M2076.16,82.2h-2.18c-10.71,0-19.39,8.68-19.39,19.39v1.09c0,11.31,9.17,20.48,20.48,20.48s20.48-9.17,20.48-20.48v-1.09c0-10.71-8.68-19.39-19.39-19.39Z"/>
  <rect class="cls-1" x="2055.13" y="150.48" width="39.88" height="158.14"/>
  <path class="cls-1" d="M2255.74,162.23c-5.74-5.28-12.29-9.19-19.66-11.74-7.37-2.55-15.07-3.82-23.08-3.82-3.64,0-7.42.37-11.33,1.09-3.92.73-7.74,1.78-11.47,3.14-3.73,1.37-7.33,3.05-10.79,5.05-3.46,2.01-6.38,4.19-8.74,6.55l-.27-11.74h-39.33v157.86h39.33v-114.98c4.75-4.55,10.05-7.87,15.9-9.97,5.85-2.09,11.8-3.14,17.83-3.14,4.02,0,7.91.68,11.65,2.05,3.75,1.37,7.08,3.46,10.01,6.28,2.93,2.82,5.26,6.38,6.99,10.65,1.74,4.28,2.61,9.24,2.61,14.89v94.23h39.33v-96.14c0-11.47-1.73-21.39-5.19-29.77-3.46-8.37-8.06-15.2-13.79-20.48Z"/>
  <path class="cls-1" d="M2429.99,302.34c-11.2-8.37-27-13.47-47.39-15.29-6.01-.55-10.52-1.64-13.52-3.28-3-1.64-4.51-3.41-4.51-5.33s1.5-3.82,4.51-5.74c3-1.91,7.51-3.32,13.52-4.23,8.74-1.27,16.61-3.82,23.62-7.65,7.01-3.82,12.97-8.47,17.89-13.93,4.92-5.46,8.69-11.51,11.33-18.16,2.64-6.64,3.96-13.52,3.96-20.62,0-9.29-2.09-18.03-6.28-26.22h16.66c0-17.2-13.94-31.14-31.14-31.14h-22.94c-7.65-2.73-15.94-4.1-24.85-4.1s-17.75,1.6-25.95,4.78c-8.19,3.19-15.39,7.56-21.58,13.11-6.19,5.56-11.11,12.06-14.75,19.53-3.64,7.47-5.46,15.48-5.46,24.03,0,6.38,1.01,12.38,3.03,18.03,2.01,5.65,4.77,10.75,8.25,15.29,3.48,4.55,7.38,8.56,11.69,12.02,4.31,3.46,8.85,6.28,13.62,8.47-4.2,1.46-7.43,3.51-9.71,6.15-2.28,2.64-3.51,5.42-3.69,8.33-.18,2.91.68,5.78,2.59,8.6,1.91,2.82,5.05,5.05,9.42,6.69-14.1,3.64-24.26,9.15-30.5,16.52s-9.35,16.52-9.35,27.45c0,7.28,1.72,13.93,5.17,19.94s8.44,11.15,14.97,15.43c6.53,4.28,14.38,7.6,23.54,9.97,9.16,2.36,19.46,3.55,30.89,3.55s21.4-1.19,30.47-3.55c9.07-2.37,16.83-5.74,23.27-10.11,6.44-4.37,11.38-9.56,14.83-15.57,3.45-6.01,5.17-12.56,5.17-19.66,0-13.84-5.6-24.95-16.8-33.32ZM2344.75,196.91c1.53-3.46,3.61-6.51,6.22-9.15,2.61-2.64,5.63-4.73,9.06-6.28,3.43-1.54,7.12-2.32,11.09-2.32s7.71.78,11.23,2.32c3.52,1.55,6.58,3.64,9.2,6.28,2.61,2.64,4.69,5.69,6.22,9.15,1.53,3.46,2.3,7.2,2.3,11.2s-.77,7.78-2.3,11.33c-1.54,3.55-3.61,6.65-6.22,9.29-2.62,2.64-5.68,4.74-9.2,6.28-3.52,1.55-7.26,2.32-11.23,2.32s-7.66-.77-11.09-2.32c-3.43-1.54-6.45-3.64-9.06-6.28-2.62-2.64-4.69-5.74-6.22-9.29-1.54-3.55-2.3-7.33-2.3-11.33s.76-7.74,2.3-11.2ZM2398.06,349.72c-6.26,3-14.65,4.51-25.16,4.51s-18.77-1.55-25.3-4.64c-6.53-3.1-9.79-7.74-9.79-13.93s3.13-10.56,9.38-13.66c6.26-3.1,14.83-4.64,25.71-4.64,10.16,0,18.45,1.46,24.89,4.37,6.44,2.91,9.66,7.55,9.66,13.93s-3.13,11.06-9.39,14.07Z"/>
  <path class="cls-1" d="M885.93,81.93h-1.25v71.01c-4.55-3.28-10.02-5.83-16.39-7.65-6.38-1.82-12.93-2.73-19.66-2.73-9.65,0-19.03,2.14-28.13,6.42-9.11,4.28-17.21,10.15-24.31,17.62-7.1,7.47-12.79,16.25-17.07,26.36-4.28,10.11-6.42,21.08-6.42,32.91,0,11.11,1.87,21.67,5.6,31.68,3.73,10.02,8.97,18.8,15.7,26.36,6.73,7.56,14.75,13.57,24.03,18.03,9.29,4.46,19.48,6.69,30.59,6.69,6.73,0,13.11-.96,19.12-2.87,6.01-1.91,11.56-4.96,16.66-9.15v8.19h.27v3.82h41.13V81.93h-39.88ZM884.67,262.69c-8.88,7.67-18.48,11.51-28.79,11.51-6.4,0-12.29-1.18-17.68-3.55-5.39-2.36-10.01-5.69-13.84-9.97-3.84-4.28-6.85-9.38-9.05-15.29-2.19-5.92-3.29-12.43-3.29-19.53s1.1-13.93,3.29-19.94c2.19-6.01,5.3-11.15,9.32-15.43,4.02-4.28,8.72-7.55,14.12-9.83,5.39-2.27,11.38-3.41,17.96-3.41,2.01,0,4.29.23,6.85.68,2.56.46,5.12,1.09,7.68,1.91,2.56.82,5.02,1.82,7.4,3,2.26,1.13,4.27,2.3,6.03,3.51v76.34Z"/>
  <path class="cls-1" d="M2008.98,277.48c-2.37,0-4.6-.27-6.69-.82-2.1-.55-3.96-1.54-5.6-3-1.64-1.46-2.96-3.46-3.96-6.01-1-2.55-1.5-5.83-1.5-9.83v-71.83h25.01c8.21,0,14.86-6.65,14.86-14.86v-20.64h-39.88v-60.09h-13.56c-14.77,0-26.75,11.98-26.75,26.75v29.51h.72v3.82h-2.74c-9.8,0-17.75,7.95-17.75,17.75v17.75h20.5v13.67h.26v55.43c0,9.83.86,18.39,2.59,25.67,1.73,7.28,4.51,13.29,8.33,18.03,3.82,4.74,8.92,8.24,15.29,10.51,6.37,2.27,14.2,3.41,23.49,3.41,5.28,0,10.56-.64,15.84-1.91,5.28-1.28,9.92-3.18,13.93-5.74v-34.69c-3.1,2.55-6.83,4.37-11.2,5.46-4.37,1.09-8.1,1.64-11.2,1.64Z"/>
  <path class="cls-2" d="M378.7,0H20.28C9.08,0,0,9.08,0,20.28v358.42c0,11.2,9.08,20.27,20.28,20.27h300.41l-121.75-163.12-43.53,57.93c-7.31,9.73-18.78,15.46-30.95,15.45h-35.97s83.01-110.6,83.01-110.6l-5.51-7.35h-.11l-37.58-50.21h47.22c5.1,0,9.91,2.4,12.97,6.49l10.67,14.25,43.73-58.28c7.31-9.75,18.79-15.48,30.97-15.47h35.96s-77.5,103.26-77.5,103.26h-.11s-4.86,6.6-4.86,6.6l143.98,192.91c3.83,5.13,9.85,8.15,16.25,8.15h11.39V20.28c0-11.2-9.08-20.28-20.28-20.28ZM153.98,125.14c-15.08,0-27.3-12.22-27.3-27.3s12.22-27.3,27.3-27.3,27.3,12.22,27.3,27.3-12.22,27.3-27.3,27.3Z"/>
</svg>